<svg id="Layer_1" enable-background="new 0 0 512 512" height="512" viewBox="0 0 512 512" width="512" xmlns="http://www.w3.org/2000/svg"><path d="m214.9 114.05c-31.51 7.67-54.9 36.08-54.9 69.95-21.63 0-40.39 12.26-49.71 30.21-40.11-8.19-70.29-43.68-70.29-86.21 0-48.6 39.4-88 88-88 43.85 0 80.21 32.08 86.9 74.05z" fill="#8bc4ff"/><g fill="#2e58ff"><path d="m8 136h24.344c1.701 20.252 9.803 38.986 22.418 53.925l-20.419 20.419c-3.124 3.124-3.124 8.189 0 11.313 3.125 3.125 8.189 3.124 11.314 0l20.4-20.401c9.603 8.155 20.855 14.477 33.271 18.36-13.906 41.293 16.927 84.384 60.672 84.384h88c4.418 0 8-3.582 8-8s-3.582-8-8-8h-88c-26.468 0-48-21.533-48-48s21.532-48 48-48c4.418 0 8-3.581 8-8 0-35.29 28.71-64 64-64 35.786 0 64 29.266 64 64 0 4.419 3.582 8 8 8s8-3.581 8-8c0-31.505-18.765-59.95-46.817-72.79 52.832-57.61 147.007-31.001 164.288 42.804.798 3.41 3.721 5.904 7.214 6.156 33.26 2.397 59.315 30.435 59.315 63.83 0 35.29-28.71 64-64 64h-136c-4.418 0-8 3.582-8 8s3.582 8 8 8h136c44.112 0 80-35.888 80-80 0-39.794-29.603-73.503-68.398-79.162-25.197-86.926-138.058-109.482-194.836-39.078-8.889-1.896-18.193-2.298-27.612-1.015-3.558-14.252-10.385-27.5-19.869-38.715l20.373-20.374c3.124-3.124 3.124-8.189 0-11.313-3.125-3.124-8.189-3.124-11.314 0l-20.364 20.365c-15.261-12.914-34.153-20.704-53.98-22.363v-24.345c0-4.418-3.582-8-8-8s-8 3.582-8 8v24.336c-20.469 1.697-39.133 9.843-53.955 22.396l-20.388-20.389c-3.124-3.124-8.188-3.125-11.314 0-3.124 3.124-3.124 8.189 0 11.313l20.389 20.389c-12.553 14.823-20.699 33.486-22.396 53.955h-24.336c-4.418 0-8 3.581-8 8s3.582 8 8 8zm120-88c37.101 0 68.781 25.398 77.6 60.485-28.902 10.134-50.281 36.411-53.247 67.969-19.198 2.296-35.8 13.133-45.918 28.581-34.171-9.541-58.435-41.071-58.435-77.035 0-44.112 35.888-80 80-80z"/><path d="m352 376c0-22.056-17.944-40-40-40s-40 17.944-40 40c0 4.418 3.582 8 8 8s8-3.582 8-8c0-13.233 10.767-24 24-24s24 10.767 24 24-10.767 24-24 24h-304c-4.418 0-8 3.582-8 8s3.582 8 8 8h304c22.056 0 40-17.944 40-40z"/><path d="m472 432h-304c-4.418 0-8 3.582-8 8s3.582 8 8 8h304c13.233 0 24 10.767 24 24s-10.767 24-24 24-24-10.767-24-24c0-4.418-3.582-8-8-8s-8 3.582-8 8c0 22.056 17.944 40 40 40s40-17.944 40-40-17.944-40-40-40z"/><path d="m392 464h-288c-4.418 0-8 3.582-8 8s3.582 8 8 8h288c4.418 0 8-3.582 8-8s-3.582-8-8-8z"/><circle cx="72" cy="472" r="8"/><path d="m248 368h-176c-4.418 0-8 3.582-8 8s3.582 8 8 8h176c4.418 0 8-3.582 8-8s-3.582-8-8-8z"/><path d="m34.34 370.34c-3.114 3.114-3.117 8.203 0 11.32 3.113 3.113 8.201 3.119 11.32 0 3.121-3.122 3.109-8.209 0-11.32-3.116-3.115-8.203-3.116-11.32 0z"/><path d="m376 368c-4.418 0-8 3.582-8 8s3.582 8 8 8h64c4.418 0 8-3.582 8-8s-3.582-8-8-8z"/><path d="m466.34 370.34c-3.113 3.134-3.116 8.184 0 11.32 3.113 3.113 8.201 3.119 11.32 0 3.114-3.115 3.115-8.203 0-11.32-3.116-3.115-8.203-3.116-11.32 0z"/><path d="m266.34 290.34c-3.114 3.114-3.117 8.203 0 11.32 3.113 3.113 8.201 3.119 11.32 0 3.116-3.117 3.115-8.203 0-11.32-3.114-3.113-8.203-3.116-11.32 0z"/></g></svg>